<svg width="720" height="25" viewBox="0 0 720 25" fill="none" xmlns="http://www.w3.org/2000/svg">
<rect width="720" height="25" fill="white"/>
<path d="M159.5 2C156.848 2 154.303 3.05422 152.43 4.92891C150.554 6.80434 149.501 9.34778 149.5 12C149.5 14.6511 150.555 17.1964 152.43 19.0711C154.303 20.9458 156.848 22 159.5 22C162.152 22 164.697 20.9458 166.57 19.0711C168.445 17.1964 169.5 14.6511 169.5 12C169.5 9.34891 168.445 6.80359 166.57 4.92891C164.697 3.05422 162.152 2 159.5 2Z" fill="url(#paint0_linear_195_2)"/>
<path d="M154.026 11.8944C156.942 10.6244 158.886 9.78707 159.858 9.38253C162.636 8.22738 163.212 8.02675 163.589 8.01996C163.672 8.01863 163.856 8.0391 163.976 8.13636C164.076 8.21839 164.105 8.32933 164.119 8.40722C164.131 8.48503 164.148 8.66238 164.134 8.80082C163.984 10.3821 163.333 14.2193 163.001 15.9903C162.862 16.7397 162.586 16.991 162.319 17.0155C161.737 17.0689 161.297 16.6318 160.734 16.2632C159.855 15.6861 159.358 15.3271 158.503 14.7641C157.516 14.1135 158.156 13.7558 158.719 13.1714C158.866 13.0185 161.425 10.6911 161.473 10.48C161.48 10.4536 161.486 10.3552 161.426 10.3033C161.369 10.2513 161.283 10.2691 161.22 10.2832C161.131 10.3032 159.726 11.2325 157.001 13.0711C156.603 13.3452 156.242 13.4788 155.917 13.4718C155.561 13.4641 154.873 13.2699 154.362 13.1039C153.737 12.9003 153.239 12.7927 153.283 12.4469C153.305 12.2669 153.553 12.0827 154.026 11.8944Z" fill="white"/>
<path d="M125.559 7.19331C125.444 6.76935 125.22 6.38285 124.91 6.07229C124.599 5.76173 124.213 5.53795 123.789 5.42325C122.236 5 115.99 5 115.99 5C115.99 5 109.743 5.01284 108.191 5.43609C107.767 5.55082 107.381 5.7746 107.07 6.08516C106.76 6.39572 106.536 6.78221 106.421 7.20616C105.952 9.96401 105.77 14.166 106.434 16.8134C106.549 17.2374 106.773 17.6239 107.083 17.9344C107.394 18.245 107.78 18.4688 108.204 18.5835C109.756 19.0067 116.003 19.0067 116.003 19.0067C116.003 19.0067 122.249 19.0067 123.801 18.5835C124.225 18.4688 124.612 18.245 124.922 17.9344C125.233 17.6239 125.457 17.2374 125.571 16.8134C126.067 14.0518 126.219 9.85232 125.559 7.19344" fill="#FF0000"/>
<path d="M114.002 15.0048L119.184 12.0034L114.002 9.00183V15.0048Z" fill="white"/>
<path d="M213.35 2H195.601C194.993 2 194.5 2.49284 194.5 3.10079V20.85C194.5 21.458 194.993 21.9508 195.601 21.9508H213.35C213.958 21.9508 214.451 21.458 214.451 20.85V3.10079C214.451 2.49284 213.958 2 213.35 2Z" fill="#3D5A98"/>
<path d="M208.264 22V14.2742H210.857L211.244 11.2635H208.264V9.34171C208.264 8.47018 208.507 7.87511 209.756 7.87511H211.351V5.17792C210.578 5.09744 209.802 5.05917 209.026 5.06329C206.73 5.06329 205.149 6.46246 205.149 9.04334V11.2635H202.556V14.2742H205.149V22H208.264Z" fill="white"/>
<path d="M187.312 2H176.688C174.099 2 172 4.09867 172 6.6875V17.3125C172 19.9013 174.099 22 176.688 22H187.312C189.901 22 192 19.9013 192 17.3125V6.6875C192 4.09867 189.901 2 187.312 2Z" fill="url(#paint1_radial_195_2)"/>
<path d="M187.391 2H176.766C174.177 2 172.078 4.09867 172.078 6.6875V17.3125C172.078 19.9013 174.177 22 176.766 22H187.391C189.979 22 192.078 19.9013 192.078 17.3125V6.6875C192.078 4.09867 189.979 2 187.391 2Z" fill="url(#paint2_radial_195_2)"/>
<path d="M182.079 4.1875C179.957 4.1875 179.691 4.1968 178.858 4.23469C178.026 4.27281 177.458 4.40445 176.961 4.59766C176.447 4.79719 176.012 5.06414 175.577 5.49852C175.143 5.93281 174.876 6.36867 174.676 6.88234C174.482 7.37922 174.35 7.94719 174.313 8.77852C174.275 9.61187 174.266 9.87828 174.266 12.0001C174.266 14.1219 174.275 14.3873 174.313 15.2206C174.351 16.0523 174.483 16.6201 174.676 17.1168C174.875 17.6307 175.142 18.0666 175.577 18.5008C176.011 18.9354 176.447 19.203 176.96 19.4025C177.457 19.5957 178.025 19.7273 178.857 19.7655C179.69 19.8034 179.956 19.8127 182.078 19.8127C184.2 19.8127 184.465 19.8034 185.299 19.7655C186.13 19.7273 186.699 19.5957 187.196 19.4025C187.709 19.203 188.145 18.9354 188.579 18.5008C189.013 18.0666 189.28 17.6307 189.48 17.117C189.672 16.6201 189.804 16.0522 189.843 15.2208C189.881 14.3875 189.891 14.1219 189.891 12.0001C189.891 9.87828 189.881 9.61203 189.843 8.77867C189.804 7.94695 189.672 7.3793 189.48 6.88258C189.28 6.36867 189.013 5.93281 188.579 5.49852C188.144 5.06398 187.71 4.79703 187.195 4.59773C186.697 4.40445 186.129 4.27273 185.297 4.23469C184.464 4.1968 184.199 4.1875 182.076 4.1875H182.079ZM181.378 5.59539C181.586 5.59508 181.818 5.59539 182.079 5.59539C184.165 5.59539 184.412 5.60289 185.236 5.64031C185.997 5.67516 186.411 5.80242 186.686 5.90938C187.051 6.05094 187.311 6.22023 187.584 6.49375C187.858 6.76719 188.027 7.02758 188.169 7.39219C188.276 7.66719 188.403 8.08063 188.438 8.84234C188.475 9.66594 188.483 9.91328 188.483 11.9983C188.483 14.0833 188.475 14.3307 188.438 15.1542C188.403 15.9159 188.276 16.3294 188.169 16.6045C188.027 16.9691 187.858 17.2287 187.584 17.502C187.311 17.7754 187.051 17.9446 186.686 18.0863C186.411 18.1937 185.997 18.3206 185.236 18.3555C184.412 18.3929 184.165 18.401 182.079 18.401C179.993 18.401 179.745 18.3929 178.922 18.3555C178.16 18.3203 177.747 18.193 177.471 18.0861C177.107 17.9445 176.846 17.7752 176.573 17.5018C176.299 17.2284 176.13 16.9686 175.988 16.6038C175.881 16.3288 175.754 15.9153 175.719 15.1536C175.682 14.33 175.674 14.0827 175.674 11.9963C175.674 9.91008 175.682 9.66398 175.719 8.84039C175.754 8.07867 175.881 7.66523 175.988 7.38984C176.13 7.02523 176.299 6.76484 176.573 6.49141C176.846 6.21797 177.107 6.04867 177.471 5.9068C177.747 5.79937 178.16 5.67242 178.922 5.63742C179.643 5.60484 179.922 5.59508 181.378 5.59344V5.59539ZM186.249 6.89258C185.732 6.89258 185.312 7.31211 185.312 7.82977C185.312 8.34734 185.732 8.76727 186.249 8.76727C186.767 8.76727 187.187 8.34734 187.187 7.82977C187.187 7.31219 186.767 6.89227 186.249 6.89227V6.89258ZM182.079 7.98797C179.863 7.98797 178.067 9.78438 178.067 12.0001C178.067 14.2158 179.863 16.0113 182.079 16.0113C184.295 16.0113 186.09 14.2158 186.09 12.0001C186.09 9.78445 184.294 7.98797 182.079 7.98797H182.079ZM182.079 9.39586C183.517 9.39586 184.683 10.5617 184.683 12.0001C184.683 13.4383 183.517 14.6043 182.079 14.6043C180.641 14.6043 179.475 13.4383 179.475 12.0001C179.475 10.5617 180.641 9.39586 182.079 9.39586Z" fill="white"/>
<rect x="129" y="2.5" width="17.7097" height="19" rx="4.5" fill="black" stroke="black"/>
<path d="M139.19 10.8789L144.414 4.80652H143.176L138.64 10.0789L135.017 4.80652H130.839L136.317 12.7794L130.839 19.1471H132.077L136.867 13.5793L140.692 19.1471H144.871L139.189 10.8789H139.19ZM137.494 12.8496L136.939 12.0557L132.523 5.73843H134.424L137.988 10.8367L138.543 11.6306L143.176 18.2575H141.275L137.494 12.8499V12.8496Z" fill="white"/>
<path d="M417.619 3.53693V20.2812H415.611V3.53693H417.619ZM425.116 17H422.81L426.325 6.81818H429.099L432.609 17H430.302L427.751 9.14489H427.672L425.116 17ZM424.972 12.9979H430.421V14.6783H424.972V12.9979ZM437.444 17H433.834V6.81818H437.473C438.498 6.81818 439.379 7.02202 440.118 7.42969C440.857 7.83404 441.426 8.41572 441.824 9.17472C442.225 9.93371 442.425 10.8419 442.425 11.8991C442.425 12.9598 442.225 13.8712 441.824 14.6335C441.426 15.3958 440.854 15.9808 440.108 16.3885C439.366 16.7962 438.478 17 437.444 17ZM435.987 15.1555H437.354C437.99 15.1555 438.526 15.0429 438.96 14.8175C439.397 14.5888 439.725 14.2358 439.944 13.7585C440.166 13.2779 440.277 12.6581 440.277 11.8991C440.277 11.1468 440.166 10.532 439.944 10.0547C439.725 9.57741 439.399 9.22609 438.965 9.00071C438.531 8.77533 437.995 8.66264 437.359 8.66264H435.987V15.1555ZM456.244 10.3828H454.066C454.026 10.1011 453.945 9.85085 453.822 9.6321C453.7 9.41004 453.542 9.22112 453.35 9.06534C453.158 8.90956 452.936 8.79025 452.684 8.70739C452.435 8.62453 452.165 8.5831 451.874 8.5831C451.347 8.5831 450.888 8.71402 450.496 8.97585C450.105 9.23437 449.802 9.61222 449.587 10.1094C449.371 10.6032 449.263 11.2031 449.263 11.9091C449.263 12.6349 449.371 13.2448 449.587 13.7386C449.805 14.2325 450.11 14.6054 450.501 14.8572C450.893 15.1091 451.345 15.2351 451.859 15.2351C452.147 15.2351 452.414 15.197 452.659 15.1207C452.908 15.0445 453.128 14.9335 453.32 14.7876C453.513 14.6385 453.672 14.4579 453.798 14.2457C453.927 14.0336 454.016 13.7917 454.066 13.5199L456.244 13.5298C456.187 13.9972 456.046 14.4479 455.821 14.8821C455.599 15.313 455.299 15.6991 454.921 16.0405C454.547 16.3786 454.099 16.647 453.579 16.8459C453.062 17.0414 452.477 17.1392 451.824 17.1392C450.916 17.1392 450.104 16.9337 449.388 16.5227C448.675 16.1117 448.112 15.5168 447.697 14.7379C447.286 13.959 447.081 13.0161 447.081 11.9091C447.081 10.7988 447.29 9.85417 447.707 9.07528C448.125 8.2964 448.692 7.70312 449.408 7.29545C450.124 6.88447 450.929 6.67898 451.824 6.67898C452.414 6.67898 452.961 6.76184 453.464 6.92756C453.972 7.09328 454.421 7.33523 454.812 7.65341C455.203 7.96828 455.521 8.3544 455.766 8.81179C456.015 9.26918 456.174 9.79285 456.244 10.3828ZM467.144 11.9091C467.144 13.0194 466.933 13.964 466.512 14.7429C466.095 15.5218 465.525 16.1167 464.802 16.5277C464.083 16.9354 463.274 17.1392 462.376 17.1392C461.471 17.1392 460.659 16.9337 459.94 16.5227C459.221 16.1117 458.652 15.5168 458.235 14.7379C457.817 13.959 457.608 13.0161 457.608 11.9091C457.608 10.7988 457.817 9.85417 458.235 9.07528C458.652 8.2964 459.221 7.70312 459.94 7.29545C460.659 6.88447 461.471 6.67898 462.376 6.67898C463.274 6.67898 464.083 6.88447 464.802 7.29545C465.525 7.70312 466.095 8.2964 466.512 9.07528C466.933 9.85417 467.144 10.7988 467.144 11.9091ZM464.961 11.9091C464.961 11.1899 464.854 10.5833 464.638 10.0895C464.426 9.59564 464.126 9.22112 463.738 8.96591C463.35 8.7107 462.896 8.5831 462.376 8.5831C461.856 8.5831 461.402 8.7107 461.014 8.96591C460.626 9.22112 460.324 9.59564 460.109 10.0895C459.897 10.5833 459.791 11.1899 459.791 11.9091C459.791 12.6283 459.897 13.2348 460.109 13.7287C460.324 14.2225 460.626 14.5971 461.014 14.8523C461.402 15.1075 461.856 15.2351 462.376 15.2351C462.896 15.2351 463.35 15.1075 463.738 14.8523C464.126 14.5971 464.426 14.2225 464.638 13.7287C464.854 13.2348 464.961 12.6283 464.961 11.9091ZM477.255 6.81818V17H475.395L470.966 10.5916H470.891V17H468.738V6.81818H470.628L475.023 13.2216H475.112V6.81818H477.255ZM478.646 8.59304V6.81818H487.008V8.59304H483.891V17H481.763V8.59304H478.646ZM488.896 17H486.589L490.104 6.81818H492.878L496.388 17H494.081L491.531 9.14489H491.451L488.896 17ZM488.752 12.9979H494.2V14.6783H488.752V12.9979ZM506.119 10.3828H503.941C503.901 10.1011 503.82 9.85085 503.697 9.6321C503.575 9.41004 503.417 9.22112 503.225 9.06534C503.033 8.90956 502.811 8.79025 502.559 8.70739C502.31 8.62453 502.04 8.5831 501.749 8.5831C501.222 8.5831 500.763 8.71402 500.371 8.97585C499.98 9.23437 499.677 9.61222 499.462 10.1094C499.246 10.6032 499.138 11.2031 499.138 11.9091C499.138 12.6349 499.246 13.2448 499.462 13.7386C499.68 14.2325 499.985 14.6054 500.376 14.8572C500.768 15.1091 501.22 15.2351 501.734 15.2351C502.022 15.2351 502.289 15.197 502.534 15.1207C502.783 15.0445 503.003 14.9335 503.195 14.7876C503.388 14.6385 503.547 14.4579 503.673 14.2457C503.802 14.0336 503.891 13.7917 503.941 13.5199L506.119 13.5298C506.062 13.9972 505.921 14.4479 505.696 14.8821C505.474 15.313 505.174 15.6991 504.796 16.0405C504.422 16.3786 503.974 16.647 503.454 16.8459C502.937 17.0414 502.352 17.1392 501.699 17.1392C500.791 17.1392 499.979 16.9337 499.263 16.5227C498.55 16.1117 497.987 15.5168 497.572 14.7379C497.161 13.959 496.956 13.0161 496.956 11.9091C496.956 10.7988 497.165 9.85417 497.582 9.07528C498 8.2964 498.567 7.70312 499.283 7.29545C499.999 6.88447 500.804 6.67898 501.699 6.67898C502.289 6.67898 502.836 6.76184 503.339 6.92756C503.847 7.09328 504.296 7.33523 504.687 7.65341C505.078 7.96828 505.396 8.3544 505.641 8.81179C505.89 9.26918 506.049 9.79285 506.119 10.3828ZM507.275 8.59304V6.81818H515.637V8.59304H512.52V17H510.392V8.59304H507.275ZM517.651 15.8168C517.323 15.8168 517.042 15.7008 516.806 15.4688C516.574 15.2367 516.458 14.955 516.458 14.6236C516.458 14.2988 516.574 14.0204 516.806 13.7884C517.042 13.5563 517.323 13.4403 517.651 13.4403C517.97 13.4403 518.248 13.5563 518.487 13.7884C518.725 14.0204 518.845 14.2988 518.845 14.6236C518.845 14.8423 518.788 15.0429 518.676 15.2251C518.566 15.4041 518.422 15.5483 518.243 15.6577C518.064 15.7637 517.867 15.8168 517.651 15.8168ZM517.651 10.8203C517.323 10.8203 517.042 10.7043 516.806 10.4723C516.574 10.2403 516.458 9.95857 516.458 9.62713C516.458 9.30232 516.574 9.02557 516.806 8.79688C517.042 8.56487 517.323 8.44886 517.651 8.44886C517.97 8.44886 518.248 8.56487 518.487 8.79688C518.725 9.02557 518.845 9.30232 518.845 9.62713C518.845 9.84919 518.788 10.0514 518.676 10.2337C518.566 10.4126 518.422 10.5552 518.243 10.6612C518.064 10.7673 517.867 10.8203 517.651 10.8203ZM527.488 6.67898C528.011 6.67898 528.515 6.76681 528.999 6.94247C529.486 7.11813 529.921 7.3982 530.302 7.78267C530.686 8.16714 530.989 8.67756 531.211 9.31392C531.437 9.94697 531.551 10.7242 531.555 11.6456C531.555 12.5107 531.457 13.2829 531.261 13.9624C531.069 14.6385 530.792 15.2135 530.431 15.6875C530.07 16.1615 529.634 16.5227 529.123 16.7713C528.613 17.0166 528.043 17.1392 527.413 17.1392C526.734 17.1392 526.134 17.0083 525.613 16.7464C525.093 16.4813 524.674 16.1217 524.356 15.6676C524.041 15.2102 523.85 14.6965 523.784 14.1264H525.907C525.99 14.4976 526.164 14.786 526.429 14.9915C526.694 15.1937 527.022 15.2947 527.413 15.2947C528.076 15.2947 528.58 15.0064 528.925 14.4297C529.269 13.8497 529.443 13.0559 529.447 12.0483H529.377C529.224 12.3466 529.019 12.6035 528.76 12.8189C528.502 13.031 528.205 13.1951 527.871 13.3111C527.539 13.4271 527.186 13.4851 526.812 13.4851C526.212 13.4851 525.676 13.3442 525.206 13.0625C524.735 12.7808 524.364 12.393 524.092 11.8991C523.82 11.4053 523.684 10.8419 523.684 10.2088C523.681 9.52604 523.839 8.91785 524.157 8.38423C524.475 7.85062 524.919 7.433 525.489 7.13139C526.063 6.82647 526.729 6.67566 527.488 6.67898ZM527.503 8.36932C527.168 8.36932 526.87 8.44886 526.608 8.60795C526.349 8.76705 526.144 8.98082 525.991 9.24929C525.842 9.51776 525.769 9.81771 525.773 10.1491C525.773 10.4839 525.845 10.7855 525.991 11.054C526.14 11.3191 526.343 11.5312 526.598 11.6903C526.856 11.8461 527.151 11.924 527.483 11.924C527.731 11.924 527.962 11.8776 528.174 11.7848C528.386 11.692 528.57 11.5644 528.726 11.402C528.885 11.2363 529.009 11.0457 529.099 10.8303C529.188 10.6148 529.233 10.3861 529.233 10.1442C529.229 9.82268 529.153 9.5277 529.004 9.25923C528.855 8.99077 528.649 8.77533 528.388 8.61293C528.126 8.45052 527.831 8.36932 527.503 8.36932ZM533.175 17L537.396 8.64773V8.57812H532.479V6.81818H539.623V8.60298L535.398 17H533.175ZM544.692 17.1392C543.926 17.1392 543.245 17.0149 542.649 16.7663C542.055 16.5144 541.59 16.1714 541.252 15.7372C540.914 15.303 540.744 14.8108 540.744 14.2607C540.744 13.8364 540.841 13.447 541.033 13.0923C541.228 12.7344 541.494 12.4377 541.828 12.2024C542.163 11.9638 542.538 11.8113 542.952 11.745V11.6754C542.408 11.5661 541.968 11.3026 541.629 10.8849C541.291 10.464 541.122 9.97514 541.122 9.41832C541.122 8.89134 541.276 8.42235 541.585 8.01136C541.893 7.59706 542.316 7.27225 542.852 7.03693C543.393 6.7983 544.006 6.67898 544.692 6.67898C545.378 6.67898 545.99 6.7983 546.526 7.03693C547.067 7.27557 547.491 7.60204 547.799 8.01633C548.107 8.42732 548.263 8.89465 548.267 9.41832C548.263 9.97846 548.091 10.4673 547.749 10.8849C547.408 11.3026 546.971 11.5661 546.437 11.6754V11.745C546.845 11.8113 547.214 11.9638 547.546 12.2024C547.88 12.4377 548.146 12.7344 548.341 13.0923C548.54 13.447 548.641 13.8364 548.644 14.2607C548.641 14.8108 548.47 15.303 548.132 15.7372C547.794 16.1714 547.327 16.5144 546.73 16.7663C546.137 17.0149 545.458 17.1392 544.692 17.1392ZM544.692 15.5582C545.033 15.5582 545.332 15.4969 545.587 15.3743C545.842 15.2483 546.041 15.076 546.183 14.8572C546.329 14.6352 546.402 14.38 546.402 14.0916C546.402 13.7966 546.328 13.5365 546.178 13.3111C546.029 13.0824 545.827 12.9034 545.572 12.7741C545.317 12.6416 545.023 12.5753 544.692 12.5753C544.364 12.5753 544.07 12.6416 543.812 12.7741C543.553 12.9034 543.35 13.0824 543.2 13.3111C543.055 13.5365 542.982 13.7966 542.982 14.0916C542.982 14.38 543.053 14.6352 543.195 14.8572C543.338 15.076 543.539 15.2483 543.797 15.3743C544.056 15.4969 544.354 15.5582 544.692 15.5582ZM544.692 11.0092C544.977 11.0092 545.231 10.9512 545.453 10.8352C545.675 10.7192 545.849 10.5585 545.975 10.353C546.101 10.1475 546.164 9.91051 546.164 9.64205C546.164 9.37689 546.101 9.14489 545.975 8.94602C545.849 8.74384 545.676 8.58641 545.458 8.47372C545.239 8.35772 544.984 8.29972 544.692 8.29972C544.404 8.29972 544.148 8.35772 543.926 8.47372C543.704 8.58641 543.53 8.74384 543.404 8.94602C543.282 9.14489 543.22 9.37689 543.22 9.64205C543.22 9.91051 543.283 10.1475 543.409 10.353C543.535 10.5585 543.709 10.7192 543.931 10.8352C544.153 10.9512 544.407 11.0092 544.692 11.0092ZM550.552 17L554.773 8.64773V8.57812H549.856V6.81818H557V8.60298L552.775 17H550.552ZM562.058 17.1392C561.355 17.1392 560.729 17.0099 560.178 16.7514C559.632 16.4929 559.197 16.1366 558.876 15.6825C558.554 15.2285 558.387 14.7081 558.374 14.1214H560.462C560.485 14.5159 560.651 14.8357 560.959 15.081C561.267 15.3262 561.633 15.4489 562.058 15.4489C562.396 15.4489 562.694 15.3743 562.953 15.2251C563.214 15.0727 563.418 14.8622 563.564 14.5938C563.713 14.322 563.788 14.0104 563.788 13.6591C563.788 13.3011 563.712 12.9863 563.559 12.7145C563.41 12.4427 563.203 12.2306 562.938 12.0781C562.673 11.9257 562.369 11.8478 562.028 11.8445C561.73 11.8445 561.44 11.9058 561.158 12.0284C560.879 12.151 560.662 12.3184 560.507 12.5305L558.593 12.1875L559.075 6.81818H565.299V8.57812H560.85L560.586 11.1286H560.646C560.825 10.8767 561.095 10.6679 561.456 10.5021C561.817 10.3364 562.222 10.2536 562.669 10.2536C563.282 10.2536 563.829 10.3977 564.31 10.6861C564.79 10.9744 565.17 11.3705 565.448 11.8743C565.727 12.3748 565.864 12.9515 565.861 13.6044C565.864 14.2905 565.705 14.9003 565.384 15.4339C565.066 15.9643 564.62 16.3819 564.046 16.6868C563.476 16.9884 562.813 17.1392 562.058 17.1392ZM571.046 6.67898C571.57 6.67898 572.074 6.76681 572.558 6.94247C573.045 7.11813 573.479 7.3982 573.86 7.78267C574.245 8.16714 574.548 8.67756 574.77 9.31392C574.995 9.94697 575.11 10.7242 575.113 11.6456C575.113 12.5107 575.015 13.2829 574.82 13.9624C574.628 14.6385 574.351 15.2135 573.99 15.6875C573.628 16.1615 573.192 16.5227 572.682 16.7713C572.172 17.0166 571.602 17.1392 570.972 17.1392C570.292 17.1392 569.692 17.0083 569.172 16.7464C568.652 16.4813 568.232 16.1217 567.914 15.6676C567.599 15.2102 567.409 14.6965 567.343 14.1264H569.465C569.548 14.4976 569.722 14.786 569.987 14.9915C570.253 15.1937 570.581 15.2947 570.972 15.2947C571.635 15.2947 572.138 15.0064 572.483 14.4297C572.828 13.8497 573.002 13.0559 573.005 12.0483H572.936C572.783 12.3466 572.578 12.6035 572.319 12.8189C572.061 13.031 571.764 13.1951 571.429 13.3111C571.098 13.4271 570.745 13.4851 570.37 13.4851C569.77 13.4851 569.235 13.3442 568.764 13.0625C568.294 12.7808 567.923 12.393 567.651 11.8991C567.379 11.4053 567.243 10.8419 567.243 10.2088C567.24 9.52604 567.397 8.91785 567.715 8.38423C568.034 7.85062 568.478 7.433 569.048 7.13139C569.621 6.82647 570.287 6.67566 571.046 6.67898ZM571.061 8.36932C570.727 8.36932 570.428 8.44886 570.166 8.60795C569.908 8.76705 569.702 8.98082 569.55 9.24929C569.401 9.51776 569.328 9.81771 569.331 10.1491C569.331 10.4839 569.404 10.7855 569.55 11.054C569.699 11.3191 569.901 11.5312 570.156 11.6903C570.415 11.8461 570.71 11.924 571.041 11.924C571.29 11.924 571.52 11.8776 571.732 11.7848C571.945 11.692 572.128 11.5644 572.284 11.402C572.443 11.2363 572.568 11.0457 572.657 10.8303C572.747 10.6148 572.791 10.3861 572.791 10.1442C572.788 9.82268 572.712 9.5277 572.563 9.25923C572.414 8.99077 572.208 8.77533 571.946 8.61293C571.684 8.45052 571.389 8.36932 571.061 8.36932ZM580.289 6.67898C580.812 6.67898 581.316 6.76681 581.8 6.94247C582.287 7.11813 582.721 7.3982 583.102 7.78267C583.487 8.16714 583.79 8.67756 584.012 9.31392C584.238 9.94697 584.352 10.7242 584.355 11.6456C584.355 12.5107 584.258 13.2829 584.062 13.9624C583.87 14.6385 583.593 15.2135 583.232 15.6875C582.87 16.1615 582.435 16.5227 581.924 16.7713C581.414 17.0166 580.844 17.1392 580.214 17.1392C579.535 17.1392 578.935 17.0083 578.414 16.7464C577.894 16.4813 577.475 16.1217 577.156 15.6676C576.842 15.2102 576.651 14.6965 576.585 14.1264H578.708C578.79 14.4976 578.964 14.786 579.23 14.9915C579.495 15.1937 579.823 15.2947 580.214 15.2947C580.877 15.2947 581.381 15.0064 581.725 14.4297C582.07 13.8497 582.244 13.0559 582.247 12.0483H582.178C582.025 12.3466 581.82 12.6035 581.561 12.8189C581.303 13.031 581.006 13.1951 580.671 13.3111C580.34 13.4271 579.987 13.4851 579.612 13.4851C579.012 13.4851 578.477 13.3442 578.007 13.0625C577.536 12.7808 577.165 12.393 576.893 11.8991C576.621 11.4053 576.485 10.8419 576.485 10.2088C576.482 9.52604 576.639 8.91785 576.958 8.38423C577.276 7.85062 577.72 7.433 578.29 7.13139C578.863 6.82647 579.53 6.67566 580.289 6.67898ZM580.303 8.36932C579.969 8.36932 579.67 8.44886 579.409 8.60795C579.15 8.76705 578.945 8.98082 578.792 9.24929C578.643 9.51776 578.57 9.81771 578.573 10.1491C578.573 10.4839 578.646 10.7855 578.792 11.054C578.941 11.3191 579.143 11.5312 579.399 11.6903C579.657 11.8461 579.952 11.924 580.284 11.924C580.532 11.924 580.762 11.8776 580.975 11.7848C581.187 11.692 581.371 11.5644 581.526 11.402C581.686 11.2363 581.81 11.0457 581.899 10.8303C581.989 10.6148 582.034 10.3861 582.034 10.1442C582.03 9.82268 581.954 9.5277 581.805 9.25923C581.656 8.99077 581.45 8.77533 581.188 8.61293C580.927 8.45052 580.632 8.36932 580.303 8.36932ZM589.839 17.2237C588.984 17.2204 588.248 17.0099 587.632 16.5923C587.018 16.1747 586.546 15.5698 586.215 14.7777C585.887 13.9856 585.724 13.0327 585.727 11.919C585.727 10.8087 585.892 9.86245 586.22 9.08026C586.551 8.29806 587.023 7.70312 587.637 7.29545C588.253 6.88447 588.987 6.67898 589.839 6.67898C590.691 6.67898 591.423 6.88447 592.036 7.29545C592.653 7.70644 593.127 8.30303 593.458 9.08523C593.79 9.86411 593.954 10.8087 593.95 11.919C593.95 13.036 593.785 13.9905 593.453 14.7827C593.125 15.5748 592.655 16.1797 592.041 16.5973C591.428 17.0149 590.694 17.2237 589.839 17.2237ZM589.839 15.4389C590.422 15.4389 590.888 15.1456 591.236 14.5589C591.584 13.9723 591.756 13.0923 591.753 11.919C591.753 11.1468 591.673 10.5038 591.514 9.99006C591.359 9.47633 591.137 9.0902 590.848 8.83168C590.563 8.57315 590.227 8.44389 589.839 8.44389C589.259 8.44389 588.795 8.7339 588.447 9.31392C588.099 9.89394 587.923 10.7623 587.92 11.919C587.92 12.7012 587.998 13.3542 588.154 13.8778C588.313 14.3982 588.536 14.7893 588.825 15.0511C589.113 15.3097 589.451 15.4389 589.839 15.4389ZM599.284 17.1392C598.518 17.1392 597.837 17.0149 597.24 16.7663C596.647 16.5144 596.181 16.1714 595.843 15.7372C595.505 15.303 595.336 14.8108 595.336 14.2607C595.336 13.8364 595.432 13.447 595.625 13.0923C595.82 12.7344 596.085 12.4377 596.42 12.2024C596.755 11.9638 597.129 11.8113 597.544 11.745V11.6754C597 11.5661 596.559 11.3026 596.221 10.8849C595.883 10.464 595.714 9.97514 595.714 9.41832C595.714 8.89134 595.868 8.42235 596.176 8.01136C596.485 7.59706 596.907 7.27225 597.444 7.03693C597.984 6.7983 598.598 6.67898 599.284 6.67898C599.97 6.67898 600.581 6.7983 601.118 7.03693C601.658 7.27557 602.083 7.60204 602.391 8.01633C602.699 8.42732 602.855 8.89465 602.858 9.41832C602.855 9.97846 602.683 10.4673 602.341 10.8849C602 11.3026 601.562 11.5661 601.029 11.6754V11.745C601.436 11.8113 601.806 11.9638 602.137 12.2024C602.472 12.4377 602.737 12.7344 602.933 13.0923C603.132 13.447 603.233 13.8364 603.236 14.2607C603.233 14.8108 603.062 15.303 602.724 15.7372C602.386 16.1714 601.919 16.5144 601.322 16.7663C600.729 17.0149 600.049 17.1392 599.284 17.1392ZM599.284 15.5582C599.625 15.5582 599.923 15.4969 600.179 15.3743C600.434 15.2483 600.633 15.076 600.775 14.8572C600.921 14.6352 600.994 14.38 600.994 14.0916C600.994 13.7966 600.919 13.5365 600.77 13.3111C600.621 13.0824 600.419 12.9034 600.164 12.7741C599.908 12.6416 599.615 12.5753 599.284 12.5753C598.956 12.5753 598.662 12.6416 598.404 12.7741C598.145 12.9034 597.941 13.0824 597.792 13.3111C597.646 13.5365 597.574 13.7966 597.574 14.0916C597.574 14.38 597.645 14.6352 597.787 14.8572C597.93 15.076 598.13 15.2483 598.389 15.3743C598.647 15.4969 598.946 15.5582 599.284 15.5582ZM599.284 11.0092C599.569 11.0092 599.822 10.9512 600.044 10.8352C600.266 10.7192 600.44 10.5585 600.566 10.353C600.692 10.1475 600.755 9.91051 600.755 9.64205C600.755 9.37689 600.692 9.14489 600.566 8.94602C600.44 8.74384 600.268 8.58641 600.049 8.47372C599.831 8.35772 599.575 8.29972 599.284 8.29972C598.995 8.29972 598.74 8.35772 598.518 8.47372C598.296 8.58641 598.122 8.74384 597.996 8.94602C597.873 9.14489 597.812 9.37689 597.812 9.64205C597.812 9.91051 597.875 10.1475 598.001 10.353C598.127 10.5585 598.301 10.7192 598.523 10.8352C598.745 10.9512 598.999 11.0092 599.284 11.0092ZM608.733 17.2237C607.878 17.2204 607.143 17.0099 606.526 16.5923C605.913 16.1747 605.441 15.5698 605.109 14.7777C604.781 13.9856 604.619 13.0327 604.622 11.919C604.622 10.8087 604.786 9.86245 605.114 9.08026C605.446 8.29806 605.918 7.70312 606.531 7.29545C607.148 6.88447 607.882 6.67898 608.733 6.67898C609.585 6.67898 610.318 6.88447 610.931 7.29545C611.547 7.70644 612.021 8.30303 612.353 9.08523C612.684 9.86411 612.848 10.8087 612.845 11.919C612.845 13.036 612.679 13.9905 612.348 14.7827C612.02 15.5748 611.549 16.1797 610.936 16.5973C610.323 17.0149 609.589 17.2237 608.733 17.2237ZM608.733 15.4389C609.317 15.4389 609.782 15.1456 610.131 14.5589C610.479 13.9723 610.651 13.0923 610.648 11.919C610.648 11.1468 610.568 10.5038 610.409 9.99006C610.253 9.47633 610.031 9.0902 609.743 8.83168C609.458 8.57315 609.121 8.44389 608.733 8.44389C608.153 8.44389 607.689 8.7339 607.341 9.31392C606.993 9.89394 606.818 10.7623 606.814 11.919C606.814 12.7012 606.892 13.3542 607.048 13.8778C607.207 14.3982 607.431 14.7893 607.719 15.0511C608.008 15.3097 608.346 15.4389 608.733 15.4389Z" fill="black"/>
<path d="M222.28 6.34091L218.999 18.5312H217.174L220.455 6.34091H222.28ZM222.952 8.59304V6.81818H231.314V8.59304H228.197V17H226.069V8.59304H222.952ZM232.652 17V9.36364H234.77V17H232.652ZM233.716 8.37926C233.401 8.37926 233.131 8.27486 232.905 8.06605C232.683 7.85393 232.572 7.60038 232.572 7.3054C232.572 7.01373 232.683 6.76349 232.905 6.55469C233.131 6.34257 233.401 6.23651 233.716 6.23651C234.031 6.23651 234.299 6.34257 234.521 6.55469C234.747 6.76349 234.859 7.01373 234.859 7.3054C234.859 7.60038 234.747 7.85393 234.521 8.06605C234.299 8.27486 234.031 8.37926 233.716 8.37926ZM236.466 17V9.36364H238.52V10.696H238.599C238.738 10.2221 238.972 9.86411 239.3 9.62216C239.628 9.37689 240.006 9.25426 240.434 9.25426C240.54 9.25426 240.654 9.26089 240.777 9.27415C240.899 9.28741 241.007 9.30563 241.1 9.32883V11.2081C241 11.1783 240.863 11.1518 240.687 11.1286C240.511 11.1054 240.351 11.0938 240.205 11.0938C239.893 11.0938 239.615 11.1617 239.37 11.2976C239.128 11.4302 238.935 11.6158 238.793 11.8544C238.654 12.093 238.584 12.3681 238.584 12.6797V17H236.466ZM247.092 13.7486V9.36364H249.21V17H247.176V15.6129H247.097C246.924 16.0604 246.638 16.42 246.237 16.6918C245.839 16.9635 245.353 17.0994 244.78 17.0994C244.27 17.0994 243.82 16.9834 243.433 16.7514C243.045 16.5194 242.742 16.1896 242.523 15.7621C242.307 15.3345 242.198 14.8224 242.195 14.2259V9.36364H244.313V13.848C244.316 14.2988 244.437 14.6551 244.676 14.9169C244.914 15.1787 245.234 15.3097 245.635 15.3097C245.89 15.3097 246.129 15.2517 246.351 15.1357C246.573 15.0163 246.752 14.8407 246.888 14.6087C247.027 14.3767 247.095 14.09 247.092 13.7486ZM258.023 9.36364L255.353 17H252.967L250.297 9.36364H252.534L254.12 14.8274H254.2L255.781 9.36364H258.023ZM261.079 17.1442C260.592 17.1442 260.158 17.0597 259.777 16.8906C259.396 16.7183 259.094 16.4647 258.872 16.13C258.653 15.7919 258.544 15.371 258.544 14.8672C258.544 14.4429 258.622 14.0866 258.778 13.7983C258.933 13.5099 259.145 13.2779 259.414 13.1023C259.682 12.9266 259.987 12.794 260.329 12.7045C260.673 12.6151 261.035 12.5521 261.412 12.5156C261.857 12.4692 262.215 12.4261 262.486 12.3864C262.758 12.3433 262.955 12.2803 263.078 12.1974C263.201 12.1146 263.262 11.992 263.262 11.8295V11.7997C263.262 11.4848 263.162 11.2412 262.964 11.0689C262.768 10.8965 262.49 10.8104 262.128 10.8104C261.747 10.8104 261.444 10.8949 261.219 11.0639C260.993 11.2296 260.844 11.4384 260.771 11.6903L258.812 11.5312C258.912 11.0672 259.107 10.6662 259.399 10.3281C259.691 9.98674 260.067 9.7249 260.528 9.54261C260.992 9.35701 261.528 9.2642 262.138 9.2642C262.563 9.2642 262.969 9.31392 263.356 9.41335C263.747 9.51278 264.094 9.6669 264.395 9.87571C264.7 10.0845 264.941 10.353 265.116 10.6811C265.292 11.0059 265.38 11.3954 265.38 11.8494V17H263.371V15.9411H263.312C263.189 16.1797 263.025 16.3902 262.819 16.5724C262.614 16.7514 262.367 16.8923 262.079 16.995C261.79 17.0945 261.457 17.1442 261.079 17.1442ZM261.686 15.6825C261.997 15.6825 262.273 15.6212 262.511 15.4986C262.75 15.3726 262.937 15.2036 263.073 14.9915C263.209 14.7794 263.277 14.5391 263.277 14.2706V13.4602C263.211 13.5033 263.119 13.5431 263.003 13.5795C262.891 13.6127 262.763 13.6442 262.621 13.674C262.478 13.7005 262.336 13.7254 262.193 13.7486C262.05 13.7685 261.921 13.7867 261.805 13.8033C261.557 13.8397 261.34 13.8977 261.154 13.9773C260.968 14.0568 260.824 14.1645 260.721 14.3004C260.619 14.433 260.567 14.5987 260.567 14.7976C260.567 15.0859 260.672 15.3063 260.881 15.4588C261.093 15.608 261.361 15.6825 261.686 15.6825ZM269.141 12.5852V17H267.023V9.36364H269.041V10.7109H269.131C269.3 10.2668 269.583 9.91548 269.981 9.65696C270.379 9.39512 270.861 9.2642 271.428 9.2642C271.958 9.2642 272.42 9.38021 272.815 9.61222C273.209 9.84422 273.516 10.1757 273.735 10.6065C273.953 11.0341 274.063 11.5445 274.063 12.1378V17H271.945V12.5156C271.948 12.0483 271.829 11.6837 271.587 11.4219C271.345 11.1567 271.012 11.0241 270.588 11.0241C270.302 11.0241 270.051 11.0855 269.832 11.2081C269.616 11.3307 269.447 11.5097 269.325 11.745C269.205 11.977 269.144 12.2571 269.141 12.5852ZM277.85 12.5852V17H275.732V9.36364H277.75V10.7109H277.84C278.009 10.2668 278.292 9.91548 278.69 9.65696C279.088 9.39512 279.57 9.2642 280.137 9.2642C280.667 9.2642 281.129 9.38021 281.524 9.61222C281.918 9.84422 282.225 10.1757 282.444 10.6065C282.662 11.0341 282.772 11.5445 282.772 12.1378V17H280.654V12.5156C280.657 12.0483 280.538 11.6837 280.296 11.4219C280.054 11.1567 279.721 11.0241 279.297 11.0241C279.011 11.0241 278.76 11.0855 278.541 11.2081C278.325 11.3307 278.156 11.5097 278.034 11.745C277.914 11.977 277.853 12.2571 277.85 12.5852ZM286.618 17.1442C286.131 17.1442 285.697 17.0597 285.316 16.8906C284.935 16.7183 284.633 16.4647 284.411 16.13C284.192 15.7919 284.083 15.371 284.083 14.8672C284.083 14.4429 284.161 14.0866 284.317 13.7983C284.472 13.5099 284.684 13.2779 284.953 13.1023C285.221 12.9266 285.526 12.794 285.868 12.7045C286.212 12.6151 286.574 12.5521 286.952 12.5156C287.396 12.4692 287.754 12.4261 288.025 12.3864C288.297 12.3433 288.494 12.2803 288.617 12.1974C288.74 12.1146 288.801 11.992 288.801 11.8295V11.7997C288.801 11.4848 288.702 11.2412 288.503 11.0689C288.307 10.8965 288.029 10.8104 287.667 10.8104C287.286 10.8104 286.983 10.8949 286.758 11.0639C286.532 11.2296 286.383 11.4384 286.31 11.6903L284.351 11.5312C284.451 11.0672 284.646 10.6662 284.938 10.3281C285.23 9.98674 285.606 9.7249 286.067 9.54261C286.531 9.35701 287.068 9.2642 287.677 9.2642C288.102 9.2642 288.508 9.31392 288.895 9.41335C289.287 9.51278 289.633 9.6669 289.934 9.87571C290.239 10.0845 290.48 10.353 290.655 10.6811C290.831 11.0059 290.919 11.3954 290.919 11.8494V17H288.91V15.9411H288.851C288.728 16.1797 288.564 16.3902 288.358 16.5724C288.153 16.7514 287.906 16.8923 287.618 16.995C287.329 17.0945 286.996 17.1442 286.618 17.1442ZM287.225 15.6825C287.537 15.6825 287.812 15.6212 288.05 15.4986C288.289 15.3726 288.476 15.2036 288.612 14.9915C288.748 14.7794 288.816 14.5391 288.816 14.2706V13.4602C288.75 13.5033 288.658 13.5431 288.542 13.5795C288.43 13.6127 288.302 13.6442 288.16 13.674C288.017 13.7005 287.875 13.7254 287.732 13.7486C287.59 13.7685 287.46 13.7867 287.344 13.8033C287.096 13.8397 286.879 13.8977 286.693 13.9773C286.507 14.0568 286.363 14.1645 286.26 14.3004C286.158 14.433 286.106 14.5987 286.106 14.7976C286.106 15.0859 286.211 15.3063 286.42 15.4588C286.632 15.608 286.9 15.6825 287.225 15.6825ZM292.562 17V9.36364H294.58V10.7109H294.67C294.829 10.2635 295.094 9.91051 295.465 9.65199C295.837 9.39347 296.281 9.2642 296.798 9.2642C297.321 9.2642 297.767 9.39512 298.135 9.65696C298.503 9.91548 298.748 10.2668 298.871 10.7109H298.95C299.106 10.2734 299.388 9.92377 299.796 9.66193C300.207 9.39678 300.692 9.2642 301.252 9.2642C301.965 9.2642 302.543 9.49124 302.987 9.94531C303.435 10.3961 303.659 11.0357 303.659 11.8643V17H301.546V12.282C301.546 11.8577 301.433 11.5395 301.208 11.3274C300.982 11.1153 300.7 11.0092 300.362 11.0092C299.978 11.0092 299.678 11.1319 299.463 11.3771C299.247 11.6191 299.139 11.9389 299.139 12.3366V17H297.086V12.2372C297.086 11.8627 296.978 11.5644 296.763 11.3423C296.551 11.1203 296.271 11.0092 295.923 11.0092C295.687 11.0092 295.475 11.0689 295.286 11.1882C295.101 11.3042 294.953 11.4683 294.844 11.6804C294.735 11.8892 294.68 12.1345 294.68 12.4162V17H292.562ZM307.509 17.1442C307.022 17.1442 306.588 17.0597 306.206 16.8906C305.825 16.7183 305.524 16.4647 305.302 16.13C305.083 15.7919 304.974 15.371 304.974 14.8672C304.974 14.4429 305.051 14.0866 305.207 13.7983C305.363 13.5099 305.575 13.2779 305.844 13.1023C306.112 12.9266 306.417 12.794 306.758 12.7045C307.103 12.6151 307.464 12.5521 307.842 12.5156C308.286 12.4692 308.644 12.4261 308.916 12.3864C309.188 12.3433 309.385 12.2803 309.508 12.1974C309.63 12.1146 309.692 11.992 309.692 11.8295V11.7997C309.692 11.4848 309.592 11.2412 309.393 11.0689C309.198 10.8965 308.919 10.8104 308.558 10.8104C308.177 10.8104 307.874 10.8949 307.648 11.0639C307.423 11.2296 307.274 11.4384 307.201 11.6903L305.242 11.5312C305.341 11.0672 305.537 10.6662 305.829 10.3281C306.12 9.98674 306.497 9.7249 306.957 9.54261C307.421 9.35701 307.958 9.2642 308.568 9.2642C308.992 9.2642 309.398 9.31392 309.786 9.41335C310.177 9.51278 310.523 9.6669 310.825 9.87571C311.13 10.0845 311.37 10.353 311.546 10.6811C311.722 11.0059 311.809 11.3954 311.809 11.8494V17H309.801V15.9411H309.741C309.619 16.1797 309.455 16.3902 309.249 16.5724C309.044 16.7514 308.797 16.8923 308.508 16.995C308.22 17.0945 307.887 17.1442 307.509 17.1442ZM308.116 15.6825C308.427 15.6825 308.702 15.6212 308.941 15.4986C309.18 15.3726 309.367 15.2036 309.503 14.9915C309.639 14.7794 309.706 14.5391 309.706 14.2706V13.4602C309.64 13.5033 309.549 13.5431 309.433 13.5795C309.32 13.6127 309.193 13.6442 309.05 13.674C308.908 13.7005 308.765 13.7254 308.623 13.7486C308.48 13.7685 308.351 13.7867 308.235 13.8033C307.986 13.8397 307.769 13.8977 307.584 13.9773C307.398 14.0568 307.254 14.1645 307.151 14.3004C307.048 14.433 306.997 14.5987 306.997 14.7976C306.997 15.0859 307.101 15.3063 307.31 15.4588C307.522 15.608 307.791 15.6825 308.116 15.6825ZM315.57 6.81818V17H313.453V6.81818H315.57ZM319.445 17.1442C318.957 17.1442 318.523 17.0597 318.142 16.8906C317.761 16.7183 317.459 16.4647 317.237 16.13C317.018 15.7919 316.909 15.371 316.909 14.8672C316.909 14.4429 316.987 14.0866 317.143 13.7983C317.299 13.5099 317.511 13.2779 317.779 13.1023C318.048 12.9266 318.353 12.794 318.694 12.7045C319.039 12.6151 319.4 12.5521 319.778 12.5156C320.222 12.4692 320.58 12.4261 320.852 12.3864C321.123 12.3433 321.321 12.2803 321.443 12.1974C321.566 12.1146 321.627 11.992 321.627 11.8295V11.7997C321.627 11.4848 321.528 11.2412 321.329 11.0689C321.133 10.8965 320.855 10.8104 320.494 10.8104C320.112 10.8104 319.809 10.8949 319.584 11.0639C319.358 11.2296 319.209 11.4384 319.136 11.6903L317.178 11.5312C317.277 11.0672 317.473 10.6662 317.764 10.3281C318.056 9.98674 318.432 9.7249 318.893 9.54261C319.357 9.35701 319.894 9.2642 320.504 9.2642C320.928 9.2642 321.334 9.31392 321.722 9.41335C322.113 9.51278 322.459 9.6669 322.761 9.87571C323.066 10.0845 323.306 10.353 323.482 10.6811C323.657 11.0059 323.745 11.3954 323.745 11.8494V17H321.737V15.9411H321.677C321.554 16.1797 321.39 16.3902 321.185 16.5724C320.979 16.7514 320.732 16.8923 320.444 16.995C320.156 17.0945 319.822 17.1442 319.445 17.1442ZM320.051 15.6825C320.363 15.6825 320.638 15.6212 320.876 15.4986C321.115 15.3726 321.302 15.2036 321.438 14.9915C321.574 14.7794 321.642 14.5391 321.642 14.2706V13.4602C321.576 13.5033 321.485 13.5431 321.369 13.5795C321.256 13.6127 321.128 13.6442 320.986 13.674C320.843 13.7005 320.701 13.7254 320.558 13.7486C320.416 13.7685 320.286 13.7867 320.17 13.8033C319.922 13.8397 319.705 13.8977 319.519 13.9773C319.334 14.0568 319.189 14.1645 319.087 14.3004C318.984 14.433 318.933 14.5987 318.933 14.7976C318.933 15.0859 319.037 15.3063 319.246 15.4588C319.458 15.608 319.726 15.6825 320.051 15.6825ZM325.388 17V9.36364H327.506V17H325.388ZM326.452 8.37926C326.137 8.37926 325.867 8.27486 325.642 8.06605C325.42 7.85393 325.309 7.60038 325.309 7.3054C325.309 7.01373 325.42 6.76349 325.642 6.55469C325.867 6.34257 326.137 6.23651 326.452 6.23651C326.767 6.23651 327.035 6.34257 327.257 6.55469C327.483 6.76349 327.596 7.01373 327.596 7.3054C327.596 7.60038 327.483 7.85393 327.257 8.06605C327.035 8.27486 326.767 8.37926 326.452 8.37926ZM330.997 17H328.691L332.205 6.81818H334.98L338.49 17H336.183L333.632 9.14489H333.553L330.997 17ZM330.853 12.9979H336.302V14.6783H330.853V12.9979ZM339.675 17V9.36364H341.729V10.696H341.808C341.947 10.2221 342.181 9.86411 342.509 9.62216C342.837 9.37689 343.215 9.25426 343.643 9.25426C343.749 9.25426 343.863 9.26089 343.986 9.27415C344.108 9.28741 344.216 9.30563 344.309 9.32883V11.2081C344.209 11.1783 344.072 11.1518 343.896 11.1286C343.72 11.1054 343.56 11.0938 343.414 11.0938C343.102 11.0938 342.824 11.1617 342.579 11.2976C342.337 11.4302 342.144 11.6158 342.002 11.8544C341.863 12.093 341.793 12.3681 341.793 12.6797V17H339.675ZM350.301 13.7486V9.36364H352.419V17H350.385V15.6129H350.306C350.133 16.0604 349.847 16.42 349.446 16.6918C349.048 16.9635 348.562 17.0994 347.989 17.0994C347.479 17.0994 347.029 16.9834 346.642 16.7514C346.254 16.5194 345.951 16.1896 345.732 15.7621C345.516 15.3345 345.407 14.8224 345.404 14.2259V9.36364H347.522V13.848C347.525 14.2988 347.646 14.6551 347.885 14.9169C348.123 15.1787 348.443 15.3097 348.844 15.3097C349.099 15.3097 349.338 15.2517 349.56 15.1357C349.782 15.0163 349.961 14.8407 350.097 14.6087C350.236 14.3767 350.304 14.09 350.301 13.7486ZM356.231 12.5852V17H354.113V9.36364H356.131V10.7109H356.221C356.39 10.2668 356.673 9.91548 357.071 9.65696C357.469 9.39512 357.951 9.2642 358.518 9.2642C359.048 9.2642 359.51 9.38021 359.905 9.61222C360.299 9.84422 360.606 10.1757 360.824 10.6065C361.043 11.0341 361.153 11.5445 361.153 12.1378V17H359.035V12.5156C359.038 12.0483 358.919 11.6837 358.677 11.4219C358.435 11.1567 358.102 11.0241 357.677 11.0241C357.392 11.0241 357.14 11.0855 356.922 11.2081C356.706 11.3307 356.537 11.5097 356.415 11.745C356.295 11.977 356.234 12.2571 356.231 12.5852ZM364.999 17.1442C364.512 17.1442 364.078 17.0597 363.697 16.8906C363.316 16.7183 363.014 16.4647 362.792 16.13C362.573 15.7919 362.464 15.371 362.464 14.8672C362.464 14.4429 362.542 14.0866 362.697 13.7983C362.853 13.5099 363.065 13.2779 363.334 13.1023C363.602 12.9266 363.907 12.794 364.249 12.7045C364.593 12.6151 364.955 12.5521 365.332 12.5156C365.777 12.4692 366.134 12.4261 366.406 12.3864C366.678 12.3433 366.875 12.2803 366.998 12.1974C367.121 12.1146 367.182 11.992 367.182 11.8295V11.7997C367.182 11.4848 367.082 11.2412 366.884 11.0689C366.688 10.8965 366.41 10.8104 366.048 10.8104C365.667 10.8104 365.364 10.8949 365.138 11.0639C364.913 11.2296 364.764 11.4384 364.691 11.6903L362.732 11.5312C362.832 11.0672 363.027 10.6662 363.319 10.3281C363.611 9.98674 363.987 9.7249 364.447 9.54261C364.911 9.35701 365.448 9.2642 366.058 9.2642C366.482 9.2642 366.888 9.31392 367.276 9.41335C367.667 9.51278 368.014 9.6669 368.315 9.87571C368.62 10.0845 368.861 10.353 369.036 10.6811C369.212 11.0059 369.3 11.3954 369.3 11.8494V17H367.291V15.9411H367.232C367.109 16.1797 366.945 16.3902 366.739 16.5724C366.534 16.7514 366.287 16.8923 365.999 16.995C365.71 17.0945 365.377 17.1442 364.999 17.1442ZM365.606 15.6825C365.917 15.6825 366.192 15.6212 366.431 15.4986C366.67 15.3726 366.857 15.2036 366.993 14.9915C367.129 14.7794 367.197 14.5391 367.197 14.2706V13.4602C367.13 13.5033 367.039 13.5431 366.923 13.5795C366.811 13.6127 366.683 13.6442 366.54 13.674C366.398 13.7005 366.255 13.7254 366.113 13.7486C365.97 13.7685 365.841 13.7867 365.725 13.8033C365.477 13.8397 365.259 13.8977 365.074 13.9773C364.888 14.0568 364.744 14.1645 364.641 14.3004C364.539 14.433 364.487 14.5987 364.487 14.7976C364.487 15.0859 364.592 15.3063 364.8 15.4588C365.013 15.608 365.281 15.6825 365.606 15.6825ZM370.943 17V9.36364H373.061V17H370.943ZM372.007 8.37926C371.692 8.37926 371.422 8.27486 371.196 8.06605C370.974 7.85393 370.863 7.60038 370.863 7.3054C370.863 7.01373 370.974 6.76349 371.196 6.55469C371.422 6.34257 371.692 6.23651 372.007 6.23651C372.322 6.23651 372.59 6.34257 372.812 6.55469C373.038 6.76349 373.15 7.01373 373.15 7.3054C373.15 7.60038 373.038 7.85393 372.812 8.06605C372.59 8.27486 372.322 8.37926 372.007 8.37926ZM374.797 17V6.81818H376.95V11.3075H377.084L380.748 6.81818H383.328L379.55 11.3771L383.373 17H380.798L378.009 12.8139L376.95 14.1065V17H374.797ZM388.828 13.7486V9.36364H390.946V17H388.913V15.6129H388.833C388.661 16.0604 388.374 16.42 387.973 16.6918C387.575 16.9635 387.09 17.0994 386.516 17.0994C386.006 17.0994 385.557 16.9834 385.169 16.7514C384.781 16.5194 384.478 16.1896 384.259 15.7621C384.044 15.3345 383.934 14.8224 383.931 14.2259V9.36364H386.049V13.848C386.052 14.2988 386.173 14.6551 386.412 14.9169C386.651 15.1787 386.97 15.3097 387.371 15.3097C387.627 15.3097 387.865 15.2517 388.087 15.1357C388.309 15.0163 388.488 14.8407 388.624 14.6087C388.763 14.3767 388.831 14.09 388.828 13.7486ZM392.64 17V9.36364H394.693V10.696H394.773C394.912 10.2221 395.146 9.86411 395.474 9.62216C395.802 9.37689 396.18 9.25426 396.607 9.25426C396.713 9.25426 396.828 9.26089 396.95 9.27415C397.073 9.28741 397.181 9.30563 397.274 9.32883V11.2081C397.174 11.1783 397.037 11.1518 396.861 11.1286C396.685 11.1054 396.525 11.0938 396.379 11.0938C396.067 11.0938 395.789 11.1617 395.544 11.2976C395.302 11.4302 395.109 11.6158 394.967 11.8544C394.828 12.093 394.758 12.3681 394.758 12.6797V17H392.64ZM400.327 17.1442C399.84 17.1442 399.406 17.0597 399.025 16.8906C398.644 16.7183 398.342 16.4647 398.12 16.13C397.901 15.7919 397.792 15.371 397.792 14.8672C397.792 14.4429 397.87 14.0866 398.026 13.7983C398.181 13.5099 398.393 13.2779 398.662 13.1023C398.93 12.9266 399.235 12.794 399.577 12.7045C399.921 12.6151 400.283 12.5521 400.661 12.5156C401.105 12.4692 401.463 12.4261 401.734 12.3864C402.006 12.3433 402.203 12.2803 402.326 12.1974C402.449 12.1146 402.51 11.992 402.51 11.8295V11.7997C402.51 11.4848 402.411 11.2412 402.212 11.0689C402.016 10.8965 401.738 10.8104 401.376 10.8104C400.995 10.8104 400.692 10.8949 400.467 11.0639C400.241 11.2296 400.092 11.4384 400.019 11.6903L398.06 11.5312C398.16 11.0672 398.355 10.6662 398.647 10.3281C398.939 9.98674 399.315 9.7249 399.776 9.54261C400.24 9.35701 400.777 9.2642 401.386 9.2642C401.811 9.2642 402.217 9.31392 402.604 9.41335C402.996 9.51278 403.342 9.6669 403.643 9.87571C403.948 10.0845 404.189 10.353 404.364 10.6811C404.54 11.0059 404.628 11.3954 404.628 11.8494V17H402.619V15.9411H402.56C402.437 16.1797 402.273 16.3902 402.067 16.5724C401.862 16.7514 401.615 16.8923 401.327 16.995C401.038 17.0945 400.705 17.1442 400.327 17.1442ZM400.934 15.6825C401.246 15.6825 401.521 15.6212 401.759 15.4986C401.998 15.3726 402.185 15.2036 402.321 14.9915C402.457 14.7794 402.525 14.5391 402.525 14.2706V13.4602C402.459 13.5033 402.367 13.5431 402.251 13.5795C402.139 13.6127 402.011 13.6442 401.869 13.674C401.726 13.7005 401.584 13.7254 401.441 13.7486C401.299 13.7685 401.169 13.7867 401.053 13.8033C400.805 13.8397 400.588 13.8977 400.402 13.9773C400.216 14.0568 400.072 14.1645 399.969 14.3004C399.867 14.433 399.815 14.5987 399.815 14.7976C399.815 15.0859 399.92 15.3063 400.129 15.4588C400.341 15.608 400.609 15.6825 400.934 15.6825ZM408.389 6.81818V17H406.271V6.81818H408.389Z" fill="black"/>
<defs>
<linearGradient id="paint0_linear_195_2" x1="1149.5" y1="2" x2="1149.5" y2="2002" gradientUnits="userSpaceOnUse">
<stop stop-color="#2AABEE"/>
<stop offset="1" stop-color="#229ED9"/>
</linearGradient>
<radialGradient id="paint1_radial_195_2" cx="0" cy="0" r="1" gradientUnits="userSpaceOnUse" gradientTransform="translate(177.312 23.5404) rotate(-90) scale(19.8215 18.4355)">
<stop stop-color="#FFDD55"/>
<stop offset="0.1" stop-color="#FFDD55"/>
<stop offset="0.5" stop-color="#FF543E"/>
<stop offset="1" stop-color="#C837AB"/>
</radialGradient>
<radialGradient id="paint2_radial_195_2" cx="0" cy="0" r="1" gradientUnits="userSpaceOnUse" gradientTransform="translate(168.728 3.4407) rotate(78.681) scale(8.86031 36.5225)">
<stop stop-color="#3771C8"/>
<stop offset="0.128" stop-color="#3771C8"/>
<stop offset="1" stop-color="#6600FF" stop-opacity="0"/>
</radialGradient>
</defs>
</svg>
