<svg width="720" height="25" viewBox="0 0 720 25" fill="none" xmlns="http://www.w3.org/2000/svg">
<rect width="720" height="25" fill="white"/>
<path d="M59.5 2C56.8484 2 54.3031 3.05422 52.4297 4.92891C50.5543 6.80434 49.5005 9.34778 49.5 12C49.5 14.6511 50.5547 17.1964 52.4297 19.0711C54.3031 20.9458 56.8484 22 59.5 22C62.1516 22 64.6969 20.9458 66.5703 19.0711C68.4453 17.1964 69.5 14.6511 69.5 12C69.5 9.34891 68.4453 6.80359 66.5703 4.92891C64.6969 3.05422 62.1516 2 59.5 2Z" fill="url(#paint0_linear_165_2)"/>
<path d="M54.0265 11.8944C56.9421 10.6244 58.8858 9.78707 59.8577 9.38253C62.6358 8.22738 63.2124 8.02675 63.589 8.01996C63.6718 8.01863 63.8561 8.0391 63.9765 8.13636C64.0765 8.21839 64.1046 8.32933 64.1186 8.40722C64.1311 8.48503 64.1483 8.66238 64.1343 8.80082C63.9843 10.3821 63.3327 14.2193 63.0015 15.9903C62.8624 16.7397 62.5858 16.991 62.3186 17.0155C61.7374 17.0689 61.2968 16.6318 60.7343 16.2632C59.8546 15.6861 59.3577 15.3271 58.503 14.7641C57.5155 14.1135 58.1561 13.7558 58.7186 13.1714C58.8655 13.0185 61.4249 10.6911 61.4733 10.48C61.4796 10.4536 61.4858 10.3552 61.4265 10.3033C61.3686 10.2513 61.2827 10.2691 61.2202 10.2832C61.1311 10.3032 59.7265 11.2325 57.0015 13.0711C56.603 13.3452 56.2421 13.4788 55.9171 13.4718C55.5608 13.4641 54.8733 13.2699 54.3624 13.1039C53.7374 12.9003 53.239 12.7927 53.2827 12.4469C53.3046 12.2669 53.553 12.0827 54.0265 11.8944Z" fill="white"/>
<path d="M25.5588 7.19331C25.444 6.76935 25.2202 6.38285 24.9097 6.07229C24.5991 5.76173 24.2126 5.53795 23.7886 5.42325C22.2364 5 15.9899 5 15.9899 5C15.9899 5 9.74318 5.01284 8.19122 5.43609C7.76727 5.55082 7.38078 5.7746 7.07022 6.08516C6.75966 6.39572 6.53588 6.78221 6.42116 7.20616C5.95167 9.96401 5.76952 14.166 6.434 16.8134C6.54872 17.2374 6.77251 17.6239 7.08307 17.9344C7.39362 18.245 7.78012 18.4688 8.20407 18.5835C9.75614 19.0067 16.0027 19.0067 16.0027 19.0067C16.0027 19.0067 22.2493 19.0067 23.8014 18.5835C24.2254 18.4688 24.6119 18.245 24.9224 17.9344C25.233 17.6239 25.4568 17.2374 25.5715 16.8134C26.0665 14.0518 26.2192 9.85232 25.5586 7.19344" fill="#FF0000"/>
<path d="M14.0017 15.0048L19.1837 12.0034L14.0017 9.00183V15.0048Z" fill="white"/>
<path d="M113.35 2H95.6008C94.9928 2 94.5 2.49284 94.5 3.10079V20.85C94.5 21.458 94.9928 21.9508 95.6008 21.9508H113.35C113.958 21.9508 114.451 21.458 114.451 20.85V3.10079C114.451 2.49284 113.958 2 113.35 2Z" fill="#3D5A98"/>
<path d="M108.264 22V14.2742H110.857L111.244 11.2635H108.264V9.34171C108.264 8.47018 108.507 7.87511 109.756 7.87511H111.351V5.17792C110.578 5.09744 109.802 5.05917 109.026 5.06329C106.73 5.06329 105.149 6.46246 105.149 9.04334V11.2635H102.556V14.2742H105.149V22H108.264Z" fill="white"/>
<path d="M87.3125 2H76.6875C74.0987 2 72 4.09867 72 6.6875V17.3125C72 19.9013 74.0987 22 76.6875 22H87.3125C89.9013 22 92 19.9013 92 17.3125V6.6875C92 4.09867 89.9013 2 87.3125 2Z" fill="url(#paint1_radial_165_2)"/>
<path d="M87.3906 2H76.7656C74.1768 2 72.0781 4.09867 72.0781 6.6875V17.3125C72.0781 19.9013 74.1768 22 76.7656 22H87.3906C89.9795 22 92.0781 19.9013 92.0781 17.3125V6.6875C92.0781 4.09867 89.9795 2 87.3906 2Z" fill="url(#paint2_radial_165_2)"/>
<path d="M82.0788 4.1875C79.9571 4.1875 79.6908 4.1968 78.8575 4.23469C78.0258 4.27281 77.458 4.40445 76.9613 4.59766C76.4474 4.79719 76.0116 5.06414 75.5773 5.49852C75.1427 5.93281 74.8758 6.36867 74.6756 6.88234C74.4819 7.37922 74.3501 7.94719 74.3127 8.77852C74.2754 9.61187 74.2656 9.87828 74.2656 12.0001C74.2656 14.1219 74.275 14.3873 74.3128 15.2206C74.3511 16.0523 74.4827 16.6201 74.6758 17.1168C74.8755 17.6307 75.1424 18.0666 75.5768 18.5008C76.0109 18.9354 76.4468 19.203 76.9603 19.4025C77.4574 19.5957 78.0252 19.7273 78.8568 19.7655C79.6902 19.8034 79.9563 19.8127 82.0779 19.8127C84.1998 19.8127 84.4653 19.8034 85.2986 19.7655C86.1303 19.7273 86.6987 19.5957 87.1958 19.4025C87.7095 19.203 88.1447 18.9354 88.5787 18.5008C89.0134 18.0666 89.2802 17.6307 89.4805 17.117C89.6725 16.6201 89.8044 16.0522 89.8434 15.2208C89.8809 14.3875 89.8906 14.1219 89.8906 12.0001C89.8906 9.87828 89.8809 9.61203 89.8434 8.77867C89.8044 7.94695 89.6725 7.3793 89.4805 6.88258C89.2802 6.36867 89.0134 5.93281 88.5787 5.49852C88.1442 5.06398 87.7096 4.79703 87.1953 4.59773C86.6973 4.40445 86.1292 4.27273 85.2975 4.23469C84.4641 4.1968 84.1988 4.1875 82.0764 4.1875H82.0788ZM81.378 5.59539C81.586 5.59508 81.8181 5.59539 82.0788 5.59539C84.1648 5.59539 84.412 5.60289 85.2358 5.64031C85.9975 5.67516 86.4109 5.80242 86.6863 5.90938C87.0509 6.05094 87.3109 6.22023 87.5841 6.49375C87.8576 6.76719 88.0268 7.02758 88.1688 7.39219C88.2757 7.66719 88.4031 8.08063 88.4378 8.84234C88.4752 9.66594 88.4834 9.91328 88.4834 11.9983C88.4834 14.0833 88.4752 14.3307 88.4378 15.1542C88.403 15.9159 88.2757 16.3294 88.1688 16.6045C88.0272 16.9691 87.8576 17.2287 87.5841 17.502C87.3107 17.7754 87.0511 17.9446 86.6863 18.0863C86.4113 18.1937 85.9975 18.3206 85.2358 18.3555C84.4122 18.3929 84.1648 18.401 82.0788 18.401C79.9927 18.401 79.7455 18.3929 78.922 18.3555C78.1602 18.3203 77.7468 18.193 77.4712 18.0861C77.1066 17.9445 76.8462 17.7752 76.5727 17.5018C76.2993 17.2284 76.1301 16.9686 75.9881 16.6038C75.8812 16.3288 75.7538 15.9153 75.7191 15.1536C75.6816 14.33 75.6741 14.0827 75.6741 11.9963C75.6741 9.91008 75.6816 9.66398 75.7191 8.84039C75.7539 8.07867 75.8812 7.66523 75.9881 7.38984C76.1298 7.02523 76.2993 6.76484 76.5728 6.49141C76.8463 6.21797 77.1066 6.04867 77.4712 5.9068C77.7466 5.79937 78.1602 5.67242 78.922 5.63742C79.6427 5.60484 79.922 5.59508 81.378 5.59344V5.59539ZM86.2491 6.89258C85.7316 6.89258 85.3116 7.31211 85.3116 7.82977C85.3116 8.34734 85.7316 8.76727 86.2491 8.76727C86.7667 8.76727 87.1866 8.34734 87.1866 7.82977C87.1866 7.31219 86.7667 6.89227 86.2491 6.89227V6.89258ZM82.0788 7.98797C79.8632 7.98797 78.0668 9.78438 78.0668 12.0001C78.0668 14.2158 79.8632 16.0113 82.0788 16.0113C84.2945 16.0113 86.0903 14.2158 86.0903 12.0001C86.0903 9.78445 84.2944 7.98797 82.0787 7.98797H82.0788ZM82.0788 9.39586C83.517 9.39586 84.683 10.5617 84.683 12.0001C84.683 13.4383 83.517 14.6043 82.0788 14.6043C80.6405 14.6043 79.4747 13.4383 79.4747 12.0001C79.4747 10.5617 80.6405 9.39586 82.0788 9.39586Z" fill="white"/>
<rect x="29" y="2.5" width="17.7097" height="19" rx="4.5" fill="black" stroke="black"/>
<path d="M39.1898 10.8789L44.4135 4.80652H43.1756L38.6399 10.0789L35.0171 4.80652H30.8386L36.3169 12.7794L30.8386 19.1471H32.0766L36.8666 13.5793L40.6924 19.1471H44.8709L39.1894 10.8789H39.1898ZM37.4942 12.8496L36.9391 12.0557L32.5226 5.73843H34.4241L37.9881 10.8367L38.5431 11.6306L43.1761 18.2575H41.2749L37.4942 12.8499V12.8496Z" fill="white"/>
<path d="M122.28 6.34091L118.999 18.5312H117.174L120.455 6.34091H122.28ZM122.952 8.59304V6.81818H131.314V8.59304H128.197V17H126.069V8.59304H122.952ZM132.652 17V9.36364H134.77V17H132.652ZM133.716 8.37926C133.401 8.37926 133.131 8.27486 132.905 8.06605C132.683 7.85393 132.572 7.60038 132.572 7.3054C132.572 7.01373 132.683 6.76349 132.905 6.55469C133.131 6.34257 133.401 6.23651 133.716 6.23651C134.031 6.23651 134.299 6.34257 134.521 6.55469C134.747 6.76349 134.859 7.01373 134.859 7.3054C134.859 7.60038 134.747 7.85393 134.521 8.06605C134.299 8.27486 134.031 8.37926 133.716 8.37926ZM136.466 17V9.36364H138.52V10.696H138.599C138.738 10.2221 138.972 9.86411 139.3 9.62216C139.628 9.37689 140.006 9.25426 140.434 9.25426C140.54 9.25426 140.654 9.26089 140.777 9.27415C140.899 9.28741 141.007 9.30563 141.1 9.32883V11.2081C141 11.1783 140.863 11.1518 140.687 11.1286C140.511 11.1054 140.351 11.0938 140.205 11.0938C139.893 11.0938 139.615 11.1617 139.37 11.2976C139.128 11.4302 138.935 11.6158 138.793 11.8544C138.654 12.093 138.584 12.3681 138.584 12.6797V17H136.466ZM147.092 13.7486V9.36364H149.21V17H147.176V15.6129H147.097C146.924 16.0604 146.638 16.42 146.237 16.6918C145.839 16.9635 145.353 17.0994 144.78 17.0994C144.27 17.0994 143.82 16.9834 143.433 16.7514C143.045 16.5194 142.742 16.1896 142.523 15.7621C142.307 15.3345 142.198 14.8224 142.195 14.2259V9.36364H144.313V13.848C144.316 14.2988 144.437 14.6551 144.676 14.9169C144.914 15.1787 145.234 15.3097 145.635 15.3097C145.89 15.3097 146.129 15.2517 146.351 15.1357C146.573 15.0163 146.752 14.8407 146.888 14.6087C147.027 14.3767 147.095 14.09 147.092 13.7486ZM158.023 9.36364L155.353 17H152.967L150.297 9.36364H152.534L154.12 14.8274H154.2L155.781 9.36364H158.023ZM161.079 17.1442C160.592 17.1442 160.158 17.0597 159.777 16.8906C159.396 16.7183 159.094 16.4647 158.872 16.13C158.653 15.7919 158.544 15.371 158.544 14.8672C158.544 14.4429 158.622 14.0866 158.778 13.7983C158.933 13.5099 159.145 13.2779 159.414 13.1023C159.682 12.9266 159.987 12.794 160.329 12.7045C160.673 12.6151 161.035 12.5521 161.412 12.5156C161.857 12.4692 162.215 12.4261 162.486 12.3864C162.758 12.3433 162.955 12.2803 163.078 12.1974C163.201 12.1146 163.262 11.992 163.262 11.8295V11.7997C163.262 11.4848 163.162 11.2412 162.964 11.0689C162.768 10.8965 162.49 10.8104 162.128 10.8104C161.747 10.8104 161.444 10.8949 161.219 11.0639C160.993 11.2296 160.844 11.4384 160.771 11.6903L158.812 11.5312C158.912 11.0672 159.107 10.6662 159.399 10.3281C159.691 9.98674 160.067 9.7249 160.528 9.54261C160.992 9.35701 161.528 9.2642 162.138 9.2642C162.563 9.2642 162.969 9.31392 163.356 9.41335C163.747 9.51278 164.094 9.6669 164.395 9.87571C164.7 10.0845 164.941 10.353 165.116 10.6811C165.292 11.0059 165.38 11.3954 165.38 11.8494V17H163.371V15.9411H163.312C163.189 16.1797 163.025 16.3902 162.819 16.5724C162.614 16.7514 162.367 16.8923 162.079 16.995C161.79 17.0945 161.457 17.1442 161.079 17.1442ZM161.686 15.6825C161.997 15.6825 162.273 15.6212 162.511 15.4986C162.75 15.3726 162.937 15.2036 163.073 14.9915C163.209 14.7794 163.277 14.5391 163.277 14.2706V13.4602C163.211 13.5033 163.119 13.5431 163.003 13.5795C162.891 13.6127 162.763 13.6442 162.621 13.674C162.478 13.7005 162.336 13.7254 162.193 13.7486C162.05 13.7685 161.921 13.7867 161.805 13.8033C161.557 13.8397 161.34 13.8977 161.154 13.9773C160.968 14.0568 160.824 14.1645 160.721 14.3004C160.619 14.433 160.567 14.5987 160.567 14.7976C160.567 15.0859 160.672 15.3063 160.881 15.4588C161.093 15.608 161.361 15.6825 161.686 15.6825ZM169.141 12.5852V17H167.023V9.36364H169.041V10.7109H169.131C169.3 10.2668 169.583 9.91548 169.981 9.65696C170.379 9.39512 170.861 9.2642 171.428 9.2642C171.958 9.2642 172.42 9.38021 172.815 9.61222C173.209 9.84422 173.516 10.1757 173.735 10.6065C173.953 11.0341 174.063 11.5445 174.063 12.1378V17H171.945V12.5156C171.948 12.0483 171.829 11.6837 171.587 11.4219C171.345 11.1567 171.012 11.0241 170.588 11.0241C170.302 11.0241 170.051 11.0855 169.832 11.2081C169.616 11.3307 169.447 11.5097 169.325 11.745C169.205 11.977 169.144 12.2571 169.141 12.5852ZM177.85 12.5852V17H175.732V9.36364H177.75V10.7109H177.84C178.009 10.2668 178.292 9.91548 178.69 9.65696C179.088 9.39512 179.57 9.2642 180.137 9.2642C180.667 9.2642 181.129 9.38021 181.524 9.61222C181.918 9.84422 182.225 10.1757 182.444 10.6065C182.662 11.0341 182.772 11.5445 182.772 12.1378V17H180.654V12.5156C180.657 12.0483 180.538 11.6837 180.296 11.4219C180.054 11.1567 179.721 11.0241 179.297 11.0241C179.011 11.0241 178.76 11.0855 178.541 11.2081C178.325 11.3307 178.156 11.5097 178.034 11.745C177.914 11.977 177.853 12.2571 177.85 12.5852ZM186.618 17.1442C186.131 17.1442 185.697 17.0597 185.316 16.8906C184.935 16.7183 184.633 16.4647 184.411 16.13C184.192 15.7919 184.083 15.371 184.083 14.8672C184.083 14.4429 184.161 14.0866 184.317 13.7983C184.472 13.5099 184.684 13.2779 184.953 13.1023C185.221 12.9266 185.526 12.794 185.868 12.7045C186.212 12.6151 186.574 12.5521 186.952 12.5156C187.396 12.4692 187.754 12.4261 188.025 12.3864C188.297 12.3433 188.494 12.2803 188.617 12.1974C188.74 12.1146 188.801 11.992 188.801 11.8295V11.7997C188.801 11.4848 188.702 11.2412 188.503 11.0689C188.307 10.8965 188.029 10.8104 187.667 10.8104C187.286 10.8104 186.983 10.8949 186.758 11.0639C186.532 11.2296 186.383 11.4384 186.31 11.6903L184.351 11.5312C184.451 11.0672 184.646 10.6662 184.938 10.3281C185.23 9.98674 185.606 9.7249 186.067 9.54261C186.531 9.35701 187.068 9.2642 187.677 9.2642C188.102 9.2642 188.508 9.31392 188.895 9.41335C189.287 9.51278 189.633 9.6669 189.934 9.87571C190.239 10.0845 190.48 10.353 190.655 10.6811C190.831 11.0059 190.919 11.3954 190.919 11.8494V17H188.91V15.9411H188.851C188.728 16.1797 188.564 16.3902 188.358 16.5724C188.153 16.7514 187.906 16.8923 187.618 16.995C187.329 17.0945 186.996 17.1442 186.618 17.1442ZM187.225 15.6825C187.537 15.6825 187.812 15.6212 188.05 15.4986C188.289 15.3726 188.476 15.2036 188.612 14.9915C188.748 14.7794 188.816 14.5391 188.816 14.2706V13.4602C188.75 13.5033 188.658 13.5431 188.542 13.5795C188.43 13.6127 188.302 13.6442 188.16 13.674C188.017 13.7005 187.875 13.7254 187.732 13.7486C187.59 13.7685 187.46 13.7867 187.344 13.8033C187.096 13.8397 186.879 13.8977 186.693 13.9773C186.507 14.0568 186.363 14.1645 186.26 14.3004C186.158 14.433 186.106 14.5987 186.106 14.7976C186.106 15.0859 186.211 15.3063 186.42 15.4588C186.632 15.608 186.9 15.6825 187.225 15.6825ZM192.562 17V9.36364H194.58V10.7109H194.67C194.829 10.2635 195.094 9.91051 195.465 9.65199C195.837 9.39347 196.281 9.2642 196.798 9.2642C197.321 9.2642 197.767 9.39512 198.135 9.65696C198.503 9.91548 198.748 10.2668 198.871 10.7109H198.95C199.106 10.2734 199.388 9.92377 199.796 9.66193C200.207 9.39678 200.692 9.2642 201.252 9.2642C201.965 9.2642 202.543 9.49124 202.987 9.94531C203.435 10.3961 203.659 11.0357 203.659 11.8643V17H201.546V12.282C201.546 11.8577 201.433 11.5395 201.208 11.3274C200.982 11.1153 200.7 11.0092 200.362 11.0092C199.978 11.0092 199.678 11.1319 199.463 11.3771C199.247 11.6191 199.139 11.9389 199.139 12.3366V17H197.086V12.2372C197.086 11.8627 196.978 11.5644 196.763 11.3423C196.551 11.1203 196.271 11.0092 195.923 11.0092C195.687 11.0092 195.475 11.0689 195.286 11.1882C195.101 11.3042 194.953 11.4683 194.844 11.6804C194.735 11.8892 194.68 12.1345 194.68 12.4162V17H192.562ZM207.509 17.1442C207.022 17.1442 206.588 17.0597 206.206 16.8906C205.825 16.7183 205.524 16.4647 205.302 16.13C205.083 15.7919 204.974 15.371 204.974 14.8672C204.974 14.4429 205.051 14.0866 205.207 13.7983C205.363 13.5099 205.575 13.2779 205.844 13.1023C206.112 12.9266 206.417 12.794 206.758 12.7045C207.103 12.6151 207.464 12.5521 207.842 12.5156C208.286 12.4692 208.644 12.4261 208.916 12.3864C209.188 12.3433 209.385 12.2803 209.508 12.1974C209.63 12.1146 209.692 11.992 209.692 11.8295V11.7997C209.692 11.4848 209.592 11.2412 209.393 11.0689C209.198 10.8965 208.919 10.8104 208.558 10.8104C208.177 10.8104 207.874 10.8949 207.648 11.0639C207.423 11.2296 207.274 11.4384 207.201 11.6903L205.242 11.5312C205.341 11.0672 205.537 10.6662 205.829 10.3281C206.12 9.98674 206.497 9.7249 206.957 9.54261C207.421 9.35701 207.958 9.2642 208.568 9.2642C208.992 9.2642 209.398 9.31392 209.786 9.41335C210.177 9.51278 210.523 9.6669 210.825 9.87571C211.13 10.0845 211.37 10.353 211.546 10.6811C211.722 11.0059 211.809 11.3954 211.809 11.8494V17H209.801V15.9411H209.741C209.619 16.1797 209.455 16.3902 209.249 16.5724C209.044 16.7514 208.797 16.8923 208.508 16.995C208.22 17.0945 207.887 17.1442 207.509 17.1442ZM208.116 15.6825C208.427 15.6825 208.702 15.6212 208.941 15.4986C209.18 15.3726 209.367 15.2036 209.503 14.9915C209.639 14.7794 209.706 14.5391 209.706 14.2706V13.4602C209.64 13.5033 209.549 13.5431 209.433 13.5795C209.32 13.6127 209.193 13.6442 209.05 13.674C208.908 13.7005 208.765 13.7254 208.623 13.7486C208.48 13.7685 208.351 13.7867 208.235 13.8033C207.986 13.8397 207.769 13.8977 207.584 13.9773C207.398 14.0568 207.254 14.1645 207.151 14.3004C207.048 14.433 206.997 14.5987 206.997 14.7976C206.997 15.0859 207.101 15.3063 207.31 15.4588C207.522 15.608 207.791 15.6825 208.116 15.6825ZM215.57 6.81818V17H213.453V6.81818H215.57ZM219.445 17.1442C218.957 17.1442 218.523 17.0597 218.142 16.8906C217.761 16.7183 217.459 16.4647 217.237 16.13C217.018 15.7919 216.909 15.371 216.909 14.8672C216.909 14.4429 216.987 14.0866 217.143 13.7983C217.299 13.5099 217.511 13.2779 217.779 13.1023C218.048 12.9266 218.353 12.794 218.694 12.7045C219.039 12.6151 219.4 12.5521 219.778 12.5156C220.222 12.4692 220.58 12.4261 220.852 12.3864C221.123 12.3433 221.321 12.2803 221.443 12.1974C221.566 12.1146 221.627 11.992 221.627 11.8295V11.7997C221.627 11.4848 221.528 11.2412 221.329 11.0689C221.133 10.8965 220.855 10.8104 220.494 10.8104C220.112 10.8104 219.809 10.8949 219.584 11.0639C219.358 11.2296 219.209 11.4384 219.136 11.6903L217.178 11.5312C217.277 11.0672 217.473 10.6662 217.764 10.3281C218.056 9.98674 218.432 9.7249 218.893 9.54261C219.357 9.35701 219.894 9.2642 220.504 9.2642C220.928 9.2642 221.334 9.31392 221.722 9.41335C222.113 9.51278 222.459 9.6669 222.761 9.87571C223.066 10.0845 223.306 10.353 223.482 10.6811C223.657 11.0059 223.745 11.3954 223.745 11.8494V17H221.737V15.9411H221.677C221.554 16.1797 221.39 16.3902 221.185 16.5724C220.979 16.7514 220.732 16.8923 220.444 16.995C220.156 17.0945 219.822 17.1442 219.445 17.1442ZM220.051 15.6825C220.363 15.6825 220.638 15.6212 220.876 15.4986C221.115 15.3726 221.302 15.2036 221.438 14.9915C221.574 14.7794 221.642 14.5391 221.642 14.2706V13.4602C221.576 13.5033 221.485 13.5431 221.369 13.5795C221.256 13.6127 221.128 13.6442 220.986 13.674C220.843 13.7005 220.701 13.7254 220.558 13.7486C220.416 13.7685 220.286 13.7867 220.17 13.8033C219.922 13.8397 219.705 13.8977 219.519 13.9773C219.334 14.0568 219.189 14.1645 219.087 14.3004C218.984 14.433 218.933 14.5987 218.933 14.7976C218.933 15.0859 219.037 15.3063 219.246 15.4588C219.458 15.608 219.726 15.6825 220.051 15.6825ZM225.388 17V9.36364H227.506V17H225.388ZM226.452 8.37926C226.137 8.37926 225.867 8.27486 225.642 8.06605C225.42 7.85393 225.309 7.60038 225.309 7.3054C225.309 7.01373 225.42 6.76349 225.642 6.55469C225.867 6.34257 226.137 6.23651 226.452 6.23651C226.767 6.23651 227.035 6.34257 227.257 6.55469C227.483 6.76349 227.596 7.01373 227.596 7.3054C227.596 7.60038 227.483 7.85393 227.257 8.06605C227.035 8.27486 226.767 8.37926 226.452 8.37926ZM230.997 17H228.691L232.205 6.81818H234.98L238.49 17H236.183L233.632 9.14489H233.553L230.997 17ZM230.853 12.9979H236.302V14.6783H230.853V12.9979ZM239.675 17V9.36364H241.729V10.696H241.808C241.947 10.2221 242.181 9.86411 242.509 9.62216C242.837 9.37689 243.215 9.25426 243.643 9.25426C243.749 9.25426 243.863 9.26089 243.986 9.27415C244.108 9.28741 244.216 9.30563 244.309 9.32883V11.2081C244.209 11.1783 244.072 11.1518 243.896 11.1286C243.72 11.1054 243.56 11.0938 243.414 11.0938C243.102 11.0938 242.824 11.1617 242.579 11.2976C242.337 11.4302 242.144 11.6158 242.002 11.8544C241.863 12.093 241.793 12.3681 241.793 12.6797V17H239.675ZM250.301 13.7486V9.36364H252.419V17H250.385V15.6129H250.306C250.133 16.0604 249.847 16.42 249.446 16.6918C249.048 16.9635 248.562 17.0994 247.989 17.0994C247.479 17.0994 247.029 16.9834 246.642 16.7514C246.254 16.5194 245.951 16.1896 245.732 15.7621C245.516 15.3345 245.407 14.8224 245.404 14.2259V9.36364H247.522V13.848C247.525 14.2988 247.646 14.6551 247.885 14.9169C248.123 15.1787 248.443 15.3097 248.844 15.3097C249.099 15.3097 249.338 15.2517 249.56 15.1357C249.782 15.0163 249.961 14.8407 250.097 14.6087C250.236 14.3767 250.304 14.09 250.301 13.7486ZM256.231 12.5852V17H254.113V9.36364H256.131V10.7109H256.221C256.39 10.2668 256.673 9.91548 257.071 9.65696C257.469 9.39512 257.951 9.2642 258.518 9.2642C259.048 9.2642 259.51 9.38021 259.905 9.61222C260.299 9.84422 260.606 10.1757 260.824 10.6065C261.043 11.0341 261.153 11.5445 261.153 12.1378V17H259.035V12.5156C259.038 12.0483 258.919 11.6837 258.677 11.4219C258.435 11.1567 258.102 11.0241 257.677 11.0241C257.392 11.0241 257.14 11.0855 256.922 11.2081C256.706 11.3307 256.537 11.5097 256.415 11.745C256.295 11.977 256.234 12.2571 256.231 12.5852ZM264.999 17.1442C264.512 17.1442 264.078 17.0597 263.697 16.8906C263.316 16.7183 263.014 16.4647 262.792 16.13C262.573 15.7919 262.464 15.371 262.464 14.8672C262.464 14.4429 262.542 14.0866 262.697 13.7983C262.853 13.5099 263.065 13.2779 263.334 13.1023C263.602 12.9266 263.907 12.794 264.249 12.7045C264.593 12.6151 264.955 12.5521 265.332 12.5156C265.777 12.4692 266.134 12.4261 266.406 12.3864C266.678 12.3433 266.875 12.2803 266.998 12.1974C267.121 12.1146 267.182 11.992 267.182 11.8295V11.7997C267.182 11.4848 267.082 11.2412 266.884 11.0689C266.688 10.8965 266.41 10.8104 266.048 10.8104C265.667 10.8104 265.364 10.8949 265.138 11.0639C264.913 11.2296 264.764 11.4384 264.691 11.6903L262.732 11.5312C262.832 11.0672 263.027 10.6662 263.319 10.3281C263.611 9.98674 263.987 9.7249 264.447 9.54261C264.911 9.35701 265.448 9.2642 266.058 9.2642C266.482 9.2642 266.888 9.31392 267.276 9.41335C267.667 9.51278 268.014 9.6669 268.315 9.87571C268.62 10.0845 268.861 10.353 269.036 10.6811C269.212 11.0059 269.3 11.3954 269.3 11.8494V17H267.291V15.9411H267.232C267.109 16.1797 266.945 16.3902 266.739 16.5724C266.534 16.7514 266.287 16.8923 265.999 16.995C265.71 17.0945 265.377 17.1442 264.999 17.1442ZM265.606 15.6825C265.917 15.6825 266.192 15.6212 266.431 15.4986C266.67 15.3726 266.857 15.2036 266.993 14.9915C267.129 14.7794 267.197 14.5391 267.197 14.2706V13.4602C267.13 13.5033 267.039 13.5431 266.923 13.5795C266.811 13.6127 266.683 13.6442 266.54 13.674C266.398 13.7005 266.255 13.7254 266.113 13.7486C265.97 13.7685 265.841 13.7867 265.725 13.8033C265.477 13.8397 265.259 13.8977 265.074 13.9773C264.888 14.0568 264.744 14.1645 264.641 14.3004C264.539 14.433 264.487 14.5987 264.487 14.7976C264.487 15.0859 264.592 15.3063 264.8 15.4588C265.013 15.608 265.281 15.6825 265.606 15.6825ZM270.943 17V9.36364H273.061V17H270.943ZM272.007 8.37926C271.692 8.37926 271.422 8.27486 271.196 8.06605C270.974 7.85393 270.863 7.60038 270.863 7.3054C270.863 7.01373 270.974 6.76349 271.196 6.55469C271.422 6.34257 271.692 6.23651 272.007 6.23651C272.322 6.23651 272.59 6.34257 272.812 6.55469C273.038 6.76349 273.15 7.01373 273.15 7.3054C273.15 7.60038 273.038 7.85393 272.812 8.06605C272.59 8.27486 272.322 8.37926 272.007 8.37926ZM274.797 17V6.81818H276.95V11.3075H277.084L280.748 6.81818H283.328L279.55 11.3771L283.373 17H280.798L278.009 12.8139L276.95 14.1065V17H274.797ZM288.828 13.7486V9.36364H290.946V17H288.913V15.6129H288.833C288.661 16.0604 288.374 16.42 287.973 16.6918C287.575 16.9635 287.09 17.0994 286.516 17.0994C286.006 17.0994 285.557 16.9834 285.169 16.7514C284.781 16.5194 284.478 16.1896 284.259 15.7621C284.044 15.3345 283.934 14.8224 283.931 14.2259V9.36364H286.049V13.848C286.052 14.2988 286.173 14.6551 286.412 14.9169C286.651 15.1787 286.97 15.3097 287.371 15.3097C287.627 15.3097 287.865 15.2517 288.087 15.1357C288.309 15.0163 288.488 14.8407 288.624 14.6087C288.763 14.3767 288.831 14.09 288.828 13.7486ZM292.64 17V9.36364H294.693V10.696H294.773C294.912 10.2221 295.146 9.86411 295.474 9.62216C295.802 9.37689 296.18 9.25426 296.607 9.25426C296.713 9.25426 296.828 9.26089 296.95 9.27415C297.073 9.28741 297.181 9.30563 297.274 9.32883V11.2081C297.174 11.1783 297.037 11.1518 296.861 11.1286C296.685 11.1054 296.525 11.0938 296.379 11.0938C296.067 11.0938 295.789 11.1617 295.544 11.2976C295.302 11.4302 295.109 11.6158 294.967 11.8544C294.828 12.093 294.758 12.3681 294.758 12.6797V17H292.64ZM300.327 17.1442C299.84 17.1442 299.406 17.0597 299.025 16.8906C298.644 16.7183 298.342 16.4647 298.12 16.13C297.901 15.7919 297.792 15.371 297.792 14.8672C297.792 14.4429 297.87 14.0866 298.026 13.7983C298.181 13.5099 298.393 13.2779 298.662 13.1023C298.93 12.9266 299.235 12.794 299.577 12.7045C299.921 12.6151 300.283 12.5521 300.661 12.5156C301.105 12.4692 301.463 12.4261 301.734 12.3864C302.006 12.3433 302.203 12.2803 302.326 12.1974C302.449 12.1146 302.51 11.992 302.51 11.8295V11.7997C302.51 11.4848 302.411 11.2412 302.212 11.0689C302.016 10.8965 301.738 10.8104 301.376 10.8104C300.995 10.8104 300.692 10.8949 300.467 11.0639C300.241 11.2296 300.092 11.4384 300.019 11.6903L298.06 11.5312C298.16 11.0672 298.355 10.6662 298.647 10.3281C298.939 9.98674 299.315 9.7249 299.776 9.54261C300.24 9.35701 300.777 9.2642 301.386 9.2642C301.811 9.2642 302.217 9.31392 302.604 9.41335C302.996 9.51278 303.342 9.6669 303.643 9.87571C303.948 10.0845 304.189 10.353 304.364 10.6811C304.54 11.0059 304.628 11.3954 304.628 11.8494V17H302.619V15.9411H302.56C302.437 16.1797 302.273 16.3902 302.067 16.5724C301.862 16.7514 301.615 16.8923 301.327 16.995C301.038 17.0945 300.705 17.1442 300.327 17.1442ZM300.934 15.6825C301.246 15.6825 301.521 15.6212 301.759 15.4986C301.998 15.3726 302.185 15.2036 302.321 14.9915C302.457 14.7794 302.525 14.5391 302.525 14.2706V13.4602C302.459 13.5033 302.367 13.5431 302.251 13.5795C302.139 13.6127 302.011 13.6442 301.869 13.674C301.726 13.7005 301.584 13.7254 301.441 13.7486C301.299 13.7685 301.169 13.7867 301.053 13.8033C300.805 13.8397 300.588 13.8977 300.402 13.9773C300.216 14.0568 300.072 14.1645 299.969 14.3004C299.867 14.433 299.815 14.5987 299.815 14.7976C299.815 15.0859 299.92 15.3063 300.129 15.4588C300.341 15.608 300.609 15.6825 300.934 15.6825ZM308.389 6.81818V17H306.271V6.81818H308.389Z" fill="black"/>
<defs>
<linearGradient id="paint0_linear_165_2" x1="1049.5" y1="2" x2="1049.5" y2="2002" gradientUnits="userSpaceOnUse">
<stop stop-color="#2AABEE"/>
<stop offset="1" stop-color="#229ED9"/>
</linearGradient>
<radialGradient id="paint1_radial_165_2" cx="0" cy="0" r="1" gradientUnits="userSpaceOnUse" gradientTransform="translate(77.3125 23.5404) rotate(-90) scale(19.8215 18.4355)">
<stop stop-color="#FFDD55"/>
<stop offset="0.1" stop-color="#FFDD55"/>
<stop offset="0.5" stop-color="#FF543E"/>
<stop offset="1" stop-color="#C837AB"/>
</radialGradient>
<radialGradient id="paint2_radial_165_2" cx="0" cy="0" r="1" gradientUnits="userSpaceOnUse" gradientTransform="translate(68.728 3.4407) rotate(78.681) scale(8.86031 36.5225)">
<stop stop-color="#3771C8"/>
<stop offset="0.128" stop-color="#3771C8"/>
<stop offset="1" stop-color="#6600FF" stop-opacity="0"/>
</radialGradient>
</defs>
</svg>
